<?xml version="1.0" encoding="iso-8859-1"?>
<!-- Generator: Adobe Illustrator 19.0.0, SVG Export Plug-In . SVG Version: 6.00 Build 0)  -->
<svg version="1.1" id="Layer_1" xmlns="http://www.w3.org/2000/svg" xmlns:xlink="http://www.w3.org/1999/xlink" x="0px" y="0px"
	 viewBox="0 0 512 512" style="enable-background:new 0 0 512 512;" xml:space="preserve">
<path style="fill:#4C6460;" d="M501.93,184.713C471.057,78.018,372.645,0,256,0C114.616,0,0,114.616,0,256
	c0,125.357,90.108,229.655,209.082,251.695L501.93,184.713z"/>
<path style="fill:#263230;" d="M512,256c0-24.74-3.522-48.657-10.07-71.287l-78.974-78.974L256,287.481L56.607,355.22
	l152.475,152.475C224.294,510.513,239.973,512,256,512C397.384,512,512,397.384,512,256z"/>
<polygon style="fill:#40D2BE;" points="256,105.739 233.739,350.609 422.957,350.609 422.957,105.739 "/>
<rect x="89.043" y="105.739" style="fill:#7DDCD4;" width="166.957" height="244.87"/>
<polygon style="fill:#263230;" points="400.696,128 256,128 222.609,222.609 256,317.217 400.696,317.217 "/>
<rect x="111.304" y="128" style="fill:#1A534A;" width="144.696" height="189.217"/>
<path style="fill:#B1EAE5;" d="M289.391,339.478l-22.261,11.13l22.261,11.13h150.261c12.295,0,22.261-9.966,22.261-22.261H289.391z"
	/>
<path style="fill:#D8F4F2;" d="M50.087,339.478c0,12.295,9.966,22.261,22.261,22.261h150.261l22.261-11.13l-22.261-11.13H50.087z"/>
<polygon style="fill:#02C8A7;" points="256,361.739 289.391,361.739 289.391,339.478 256,339.478 233.739,350.609 "/>
<rect x="222.609" y="339.478" style="fill:#40D2BE;" width="33.391" height="22.261"/>
<g>
</g>
<g>
</g>
<g>
</g>
<g>
</g>
<g>
</g>
<g>
</g>
<g>
</g>
<g>
</g>
<g>
</g>
<g>
</g>
<g>
</g>
<g>
</g>
<g>
</g>
<g>
</g>
<g>
</g>
</svg>
