<?xml version="1.0" encoding="iso-8859-1"?>
<!-- Generator: Adobe Illustrator 19.0.0, SVG Export Plug-In . SVG Version: 6.00 Build 0)  -->
<svg version="1.1" id="Layer_1" xmlns="http://www.w3.org/2000/svg" xmlns:xlink="http://www.w3.org/1999/xlink" x="0px" y="0px"
	 viewBox="0 0 512 512" style="enable-background:new 0 0 512 512;" xml:space="preserve">
<path style="fill:#889391;" d="M507.242,206.72C484.267,88.918,380.526,0,256,0C114.616,0,0,114.616,0,256
	c0,121.266,84.321,222.832,197.527,249.284L507.242,206.72z"/>
<path style="fill:#616F6D;" d="M395.13,161.391l-55.652-55.652L96.557,404.313l100.971,100.971C216.309,509.673,235.882,512,256,512
	c141.385,0,256-114.616,256-256c0-16.858-1.647-33.331-4.758-49.28L428.522,128L395.13,161.391z"/>
<polygon style="fill:#FEF2CC;" points="339.478,128 384,417.391 211.478,417.391 166.957,261.565 211.478,105.739 339.478,105.739 
	"/>
<path style="fill:#FFFFFF;" d="M211.478,105.739v222.609l-11.13,11.13l11.13,11.13v22.261L200.348,384l11.13,11.13v22.261H128
	c-24.487,0-44.522-20.035-44.522-44.522v-267.13H211.478z"/>
<path style="fill:#F9BE02;" d="M384,128l-22.261,144.696L384,417.391c24.487,0,44.522-20.035,44.522-44.522V128H384z"/>
<polygon style="fill:#F63341;" points="211.478,128 185.76,172.522 211.478,217.043 317.217,217.043 317.217,128 "/>
<rect x="105.739" y="128" style="fill:#F85C67;" width="105.739" height="89.043"/>
<polygon style="fill:#616F6D;" points="211.478,239.304 185.76,250.435 211.478,261.565 317.217,261.565 317.217,239.304 "/>
<rect x="105.739" y="239.304" style="fill:#889391;" width="105.739" height="22.261"/>
<polygon style="fill:#616F6D;" points="211.478,283.826 185.76,294.957 211.478,306.087 317.217,306.087 317.217,283.826 "/>
<g>
	<rect x="105.739" y="283.826" style="fill:#889391;" width="105.739" height="22.261"/>
	<rect x="105.739" y="328.348" style="fill:#889391;" width="105.739" height="22.261"/>
</g>
<rect x="159.165" y="372.87" style="fill:#FBD867;" width="52.313" height="22.261"/>
<rect x="233.739" y="328.348" style="fill:#F63341;" width="83.478" height="66.783"/>
<path style="fill:#FBD867;" d="M339.478,128v244.87c0,24.487,20.035,44.522,44.522,44.522V128H339.478z"/>
<g>
</g>
<g>
</g>
<g>
</g>
<g>
</g>
<g>
</g>
<g>
</g>
<g>
</g>
<g>
</g>
<g>
</g>
<g>
</g>
<g>
</g>
<g>
</g>
<g>
</g>
<g>
</g>
<g>
</g>
</svg>
