<?xml version="1.0" encoding="iso-8859-1"?>
<!-- Generator: Adobe Illustrator 19.0.0, SVG Export Plug-In . SVG Version: 6.00 Build 0)  -->
<svg version="1.1" id="Layer_1" xmlns="http://www.w3.org/2000/svg" xmlns:xlink="http://www.w3.org/1999/xlink" x="0px" y="0px"
	 viewBox="0 0 512 512" style="enable-background:new 0 0 512 512;" xml:space="preserve">
<path style="fill:#F85C67;" d="M508.471,213.514C488.23,92.353,382.909,0,256,0C114.616,0,0,114.616,0,256
	C0,382.908,92.353,488.229,213.514,508.47L508.471,213.514z"/>
<path style="fill:#F63341;" d="M508.471,213.514l-46.557-46.557l-50.507,21.841L267.13,44.522l-10.562,211.232L50.087,345.043
	L213.514,508.47C227.335,510.779,241.524,512,256,512c141.385,0,256-114.616,256-256C512,241.524,510.779,227.335,508.471,213.514z"
	/>
<polygon style="fill:#FB9DA4;" points="256,166.957 211.478,256 256,345.043 395.13,345.043 422.957,300.522 461.913,278.261 
	461.913,166.957 "/>
<polygon style="fill:#D8F4F2;" points="439.652,278.261 439.652,189.217 256,189.217 256,322.783 395.13,322.783 "/>
<polygon style="fill:#7DDCD4;" points="395.13,345.043 461.913,278.261 395.13,278.261 "/>
<rect x="50.087" y="166.957" style="fill:#FCBEC2;" width="205.913" height="178.087"/>
<rect x="72.348" y="189.217" style="fill:#FFFFFF;" width="183.652" height="133.565"/>
<g>
	<rect x="256" y="267.13" style="fill:#0E7563;" width="111.304" height="22.261"/>
	<rect x="256" y="222.609" style="fill:#0E7563;" width="111.304" height="22.261"/>
</g>
<g>
	<rect x="144.696" y="267.13" style="fill:#889391;" width="111.304" height="22.261"/>
	<polygon style="fill:#889391;" points="256,222.609 144.696,222.609 144.696,244.87 205.913,244.87 	"/>
</g>
<polygon style="fill:#263230;" points="244.87,378.435 256,467.478 283.826,400.696 "/>
<polygon style="fill:#394B48;" points="228.174,400.696 256,467.478 256,378.435 "/>
<rect x="244.87" y="44.522" style="fill:#B1EAE5;" width="22.261" height="89.043"/>
<polygon style="fill:#394B48;" points="283.826,66.783 256,66.783 244.87,233.739 256,400.696 283.826,400.696 283.826,111.304 
	267.13,100.174 283.826,89.043 "/>
<polygon style="fill:#4C6460;" points="228.174,66.783 228.174,100.174 222.609,172.521 228.174,244.868 228.174,400.696 
	256,400.696 256,66.783 "/>
<polygon style="fill:#C3C9C8;" points="283.826,89.043 256,89.043 244.87,100.174 256,111.304 283.826,111.304 "/>
<polygon style="fill:#B1EAE5;" points="205.913,89.043 205.913,244.87 228.174,244.87 228.174,111.304 256,111.304 256,89.043 "/>
<g>
</g>
<g>
</g>
<g>
</g>
<g>
</g>
<g>
</g>
<g>
</g>
<g>
</g>
<g>
</g>
<g>
</g>
<g>
</g>
<g>
</g>
<g>
</g>
<g>
</g>
<g>
</g>
<g>
</g>
</svg>
