<?xml version="1.0" standalone="no"?>
<!DOCTYPE svg PUBLIC "-//W3C//DTD SVG 20010904//EN"
 "http://www.w3.org/TR/2001/REC-SVG-20010904/DTD/svg10.dtd">
<svg version="1.0" xmlns="http://www.w3.org/2000/svg"
 width="200.000000pt" height="200.000000pt" viewBox="0 0 200.000000 200.000000"
 preserveAspectRatio="xMidYMid meet">

<g transform="translate(0.000000,200.000000) scale(0.100000,-0.100000)"
fill="#000000" stroke="none">
<path d="M1249 1437 c-19 -15 -132 -183 -157 -234 -17 -34 -282 -501 -385
-678 -48 -82 -52 -123 -17 -160 l23 -25 563 0 562 0 31 26 c22 18 31 35 31 56
0 32 -1 34 -213 413 -154 275 -222 397 -274 495 -57 106 -116 144 -164 107z
m200 -372 c83 -148 157 -279 163 -290 14 -23 75 -134 141 -252 l45 -83 -94 0
c-71 0 -94 3 -94 13 0 7 -59 116 -131 243 -72 126 -164 288 -205 360 l-75 132
32 53 c54 92 60 101 64 97 2 -1 71 -124 154 -273z m-109 -330 c9 -16 41 -73
70 -125 29 -52 61 -107 72 -122 10 -14 18 -31 18 -37 0 -8 -106 -11 -361 -11
-198 0 -359 4 -357 8 2 4 83 148 182 320 l178 312 90 -157 c50 -87 98 -171
108 -188z"/>
</g>
</svg>
